<?xml version="1.0" standalone="no"?>
<!DOCTYPE svg PUBLIC "-//W3C//DTD SVG 20010904//EN"
 "http://www.w3.org/TR/2001/REC-SVG-20010904/DTD/svg10.dtd">
<svg version="1.0" xmlns="http://www.w3.org/2000/svg"
 width="210.000000pt" height="240.000000pt" viewBox="0 0 210.000000 240.000000"
 preserveAspectRatio="xMidYMid meet">

<g transform="translate(0.000000,240.000000) scale(0.100000,-0.100000)"
fill="#000000" stroke="none">
<path d="M924 2370 c-16 -17 -62 -47 -102 -65 -86 -40 -175 -124 -213 -200
-22 -46 -24 -63 -27 -229 l-4 -180 -28 -26 c-37 -35 -46 -73 -31 -129 12 -45
165 -300 225 -376 48 -60 48 -58 20 -133 -25 -69 -27 -71 -83 -95 -31 -13
-117 -39 -191 -57 -237 -56 -285 -75 -360 -146 -51 -47 -93 -123 -111 -200
-14 -60 -16 -212 -5 -396 l8 -138 84 0 c73 0 84 2 84 18 0 9 -16 134 -34 276
-21 158 -31 267 -26 280 20 53 -23 51 910 54 547 1 877 -1 893 -7 14 -6 34
-22 43 -36 16 -24 15 -39 -15 -278 -18 -138 -34 -264 -37 -280 l-6 -27 86 0
86 0 1 158 c2 326 -4 389 -52 489 -34 71 -106 142 -171 166 -24 9 -122 36
-219 61 -234 58 -257 69 -309 145 l-41 62 43 48 c48 55 229 348 247 400 19 58
14 105 -14 131 -24 23 -25 27 -25 169 -1 212 -23 286 -116 377 -85 84 -287
174 -428 190 -51 6 -55 5 -82 -26z m206 -525 c115 -30 165 -38 242 -39 112 -1
108 4 83 -101 -8 -33 -15 -63 -15 -67 0 -5 20 -8 44 -8 92 0 85 -40 -46 -260
-116 -193 -203 -289 -288 -314 -119 -35 -219 -8 -309 84 -52 54 -197 268 -248
369 -43 83 -24 135 49 133 25 -1 28 3 28 31 -1 18 -5 64 -10 102 -5 39 -6 73
-2 77 4 4 32 14 62 23 91 25 237 14 410 -30z m-176 -845 c60 -19 201 -9 254
19 24 12 45 21 46 19 1 -2 24 -32 51 -67 l48 -65 -34 -28 c-64 -54 -131 -72
-264 -73 -116 0 -123 1 -186 32 -36 18 -73 41 -82 51 -15 17 -15 21 7 64 13
26 28 60 34 78 l11 31 38 -25 c21 -13 55 -29 77 -36z"/>
<path d="M1070 487 c0 -2 -27 -108 -59 -235 l-59 -232 47 0 48 0 57 223 c31
122 56 228 56 235 0 8 -16 12 -45 12 -25 0 -45 -1 -45 -3z"/>
<path d="M773 362 c-123 -70 -143 -87 -143 -122 0 -33 24 -55 125 -112 140
-79 125 -78 125 -5 l0 63 -65 23 c-36 13 -65 27 -65 31 0 4 29 18 65 31 l65
23 0 63 c0 35 -1 63 -2 63 -2 0 -49 -26 -105 -58z"/>
<path d="M1220 357 l0 -64 69 -23 c38 -13 68 -27 66 -30 -2 -3 -33 -16 -69
-30 l-66 -24 0 -64 0 -63 68 37 c133 73 177 107 180 137 2 17 -4 37 -13 48
-14 14 -101 67 -227 136 -5 2 -8 -25 -8 -60z"/>
</g>
</svg>
